<svg width="856" height="588" viewBox="0 0 856 588" fill="none" xmlns="http://www.w3.org/2000/svg">
<path d="M653.303 198.118H653.297C652.131 197.622 651.034 197.313 649.991 197.129V206.619C650.148 206.674 650.27 206.704 650.446 206.777C650.322 207.313 650.165 207.955 649.991 208.584V222.441H642.263C640.102 227.103 638.37 231.865 636.771 236.312C632.212 248.95 627.784 259.198 621.385 268.008C624.629 268.461 627.629 269.064 630.331 269.85C635.873 261.18 639.962 251.442 644.127 239.892C647.008 231.884 649.986 223.607 655.052 216.985C656.891 214.59 657.617 211.459 658.147 209.176C659.309 204.2 657.403 199.864 653.303 198.118ZM650.797 206.948C650.734 206.899 650.663 206.79 650.601 206.727L651.934 202.472L650.797 206.948Z" fill="#EC021B"/>
<path d="M192.803 227.695C199.206 231.293 203.775 236.327 207.184 243.537C215.36 260.828 228.472 271.528 246.157 275.339C252.603 276.725 256.424 274.624 259.693 268.025C259.777 267.921 260.003 267.755 259.925 267.744C262.001 267.577 264.17 267.731 266.47 267.908L267.999 268.016C268.515 268.051 269.034 268.124 269.551 268.168L265.309 258.552C263.363 258.421 261.38 258.327 259.346 258.502C256.858 258.715 254.146 260.689 252.899 263.202C251.219 266.578 250.68 266.901 247.609 266.223C232.391 262.943 221.141 253.809 214.174 239.075C209.988 230.218 204.133 223.769 196.283 219.354C195.812 219.087 195.362 218.773 194.908 218.467L193.901 217.792C190.402 215.551 188.985 212.989 188.84 208.658C188.685 203.959 187.719 199.461 186.785 195.112C186.548 194.011 186.312 192.905 186.09 191.811C185.646 189.599 184.367 187.33 182.673 185.756C181.841 184.986 181.619 184.547 181.586 184.542C181.602 184.442 181.693 184.066 182.116 183.338C185.584 177.404 188.827 171.484 190.403 164.382L190.733 162.927C191.025 161.675 191.313 160.424 191.532 159.159C191.812 157.52 192.302 154.654 190.808 151.757C191.31 151.201 191.851 150.663 192.488 150.023L199.43 142.916L189.371 139.867C187.407 139.261 185.599 138.7 183.777 138.21C180.554 137.35 180.497 136.241 180.475 135.822C180.403 134.4 180.622 133.251 180.853 132.789C183.315 127.9 186.269 122.191 189.545 116.942C193.648 110.36 198.217 103.48 203.918 95.2843C206.765 91.1958 210.877 88.6572 215.197 86.2043C219.901 83.5288 225.753 80.2022 230.545 74.892C234.875 70.0855 236.781 64.701 236.368 58.4272C235.898 51.3287 237.269 45.4176 240.563 40.3624C243.264 36.2028 246.996 33.8931 251.973 33.2963C257.964 32.572 260.8 29.1368 261.164 22.1575C261.209 21.3015 261.231 20.4372 261.25 19.5771C261.274 18.4588 261.294 17.3416 261.398 16.241C263.8 17.9791 264.368 20.2324 263.192 23.2966L259.422 32.432H265.756C266.214 32.432 266.645 32.4675 267.051 32.5041C268.279 32.5961 269.673 32.7131 271.168 32.1331C276.029 30.2602 282.416 27.7478 288.738 24.9312L291.712 23.5966C298.73 20.4226 305.359 17.4325 312.45 16.3727C315.233 15.9516 318.029 15.6767 320.825 15.3956C323.759 15.1061 326.694 14.8103 329.613 14.3672C333.987 13.7066 338.352 12.951 342.715 12.1943C347.08 11.4377 351.445 10.6831 355.817 10.0257C359.122 9.52827 362.525 9.27951 365.95 9.27951C366.566 9.27951 367.224 9.29418 367.511 9.32866C367.58 9.54291 367.672 9.87733 367.783 10.3936L368.23 12.4577C369.07 16.3184 369.861 19.9679 370.272 23.6415C370.56 26.2094 369.742 28.634 367.855 30.8445C367.391 31.3827 367.094 31.9209 366.804 32.4498C366.132 33.6997 366.176 34.9037 366.193 35.4963V39.5398L369.638 40.0864C370.575 40.2369 371.513 40.4167 372.456 40.5923C374.928 41.0626 377.485 41.5496 380.163 41.5935C382.463 41.7022 384.476 40.4397 386.068 39.4844L387.053 38.9033C387.907 38.433 388.584 37.8321 389.127 37.3482C389.257 37.2333 389.381 37.111 389.505 37.0086C389.552 37.0086 389.599 37.0127 389.644 37.0169C389.639 37.134 389.628 37.2531 389.616 37.3744C389.573 37.6555 389.213 38.4529 388.948 39.0361C388.681 39.6193 388.405 40.2359 388.144 40.8995L386.357 45.4353L398.415 50.6317C399.466 51.0748 400.53 51.5054 401.616 51.8221C403.02 52.2296 403.314 52.5149 403.346 52.5494C403.346 52.5494 403.429 52.7313 403.457 53.2465C403.639 56.5334 406.328 59.6573 408.726 60.5153C413.062 62.0684 417.486 63.404 421.766 64.6937L424.469 65.5141C426.231 66.0482 428.116 66.5958 430.042 66.9083C430.985 67.0651 433.52 67.4685 435.421 65.4587C437.318 63.4417 437.196 60.5112 437.148 59.4075C437.035 56.6954 436.787 53.9844 436.502 51.2869C436.343 49.7652 436.518 48.8873 436.732 48.5749C436.97 48.2268 437.671 47.9551 438.605 47.8433C443.241 47.303 447.764 48.4578 453.206 50.038C456.205 50.9118 459.186 51.8565 462.17 52.8065C467.17 54.392 472.34 56.0339 477.549 57.3016C482.985 58.6278 488.529 59.2393 493.892 59.8277L496.695 60.1401C500.235 60.5425 503.755 59.4828 507.512 56.8898C508.557 56.1697 510.078 55.4183 511.339 55.852C512.557 56.2868 513.403 57.8273 513.898 59.0438C515.362 62.6369 516.436 66.5133 517.3 69.8357C519.053 76.5631 521.463 82.4774 524.676 87.9308C528 93.5713 530.738 99.6048 533.635 105.99C534.87 108.706 536.1 111.418 537.377 114.096C538.705 116.885 540.036 119.666 541.375 122.438C542.874 125.553 545.378 127.277 548.433 127.296C550.822 127.304 552.676 128.187 553.952 132.447C555.502 137.586 555.542 141.494 554.085 145.116C551.663 151.145 553.348 156.581 554.825 160.138C558.316 168.561 563.41 176.526 570.816 185.188H582.431C580.455 183.125 578.497 181.027 576.634 178.855C569.775 170.866 565.127 163.643 562.008 156.116C560.731 153.032 560.528 150.984 561.31 149.041C564.431 141.282 562.901 134.107 561.483 129.391C558.675 120.036 552.852 118.047 548.329 117.908C546.998 115.148 545.674 112.377 544.354 109.608C543.099 106.982 541.897 104.319 540.69 101.662C537.812 95.3261 534.838 88.7721 531.256 82.6885C528.474 77.9677 526.466 73.0295 524.932 67.1487C523.986 63.5064 522.796 59.2236 521.108 55.0786C518.967 49.8196 515.882 47.7785 513.675 46.9894C511.432 46.1889 507.846 45.8805 503.446 48.9135C501.169 50.4843 499.268 51.0905 497.473 50.9149L494.643 50.5982C489.502 50.0328 484.184 49.4475 479.185 48.23C474.208 47.0166 469.155 45.4155 464.267 43.8635C461.23 42.8999 458.193 41.9342 455.141 41.049C449.148 39.3005 443.716 37.9199 437.782 38.6159C434.582 39.0079 432.129 40.4146 430.494 42.8006C428.816 45.2493 428.175 48.4798 428.589 52.4031C428.756 54.0199 428.911 55.6451 429.035 57.2702C428.191 57.056 427.343 56.8041 426.482 56.5407L423.769 55.7214C419.63 54.4725 415.354 53.1817 411.323 51.6256C410.485 44.8375 405.302 43.3336 403.546 42.8278C402.728 42.5874 401.931 42.2561 401.143 41.9227L397.203 40.2296C397.333 39.7478 397.437 39.2462 397.503 38.7121C397.673 37.3723 398.031 32.7915 395.537 30.1944C393.437 27.9976 390.305 27.5429 388.236 27.8084C386.445 28.0561 385.142 29.2162 384.28 29.9854C384.064 30.1766 383.856 30.393 383.636 30.5299C383.23 30.7504 382.82 30.996 382.406 31.2437C381.752 31.6367 380.655 32.2941 380.272 32.3212C379.148 32.3035 378.003 32.177 376.827 31.9951C378.074 28.9946 378.548 25.7349 378.179 22.4459C377.707 18.2216 376.819 14.1351 375.961 10.1836L375.522 8.15603C374.316 2.50509 371.724 0.0720408 366.86 0.0135143C362.775 -0.070095 358.732 0.238238 354.794 0.827683C350.369 1.49656 345.953 2.26263 341.537 3.02661C337.224 3.77283 332.91 4.52007 328.583 5.17744C325.782 5.59758 322.961 5.87871 320.141 6.1588C317.231 6.4483 314.323 6.73675 311.43 7.17152C303.376 8.37654 295.977 11.722 288.823 14.9535L285.882 16.2745C280.917 18.4881 275.881 20.5156 271.671 22.1679C272.257 16.5514 270.035 11.4502 265.365 8.19574C262.802 6.41277 260.009 6.13582 257.691 7.4349C255.421 8.71203 253.903 11.3541 253.526 14.6859C253.355 16.2149 253.313 17.7743 253.277 19.3294C253.259 20.0861 253.244 20.8417 253.205 21.5931C253.125 23.1137 252.931 23.607 252.952 23.6206C252.881 23.6656 252.465 23.9101 251.149 24.069C243.957 24.9333 238.255 28.5327 234.199 34.7636C229.748 41.6133 227.802 49.8102 228.416 59.1295C228.643 62.5983 227.634 65.304 225.037 68.1823C221.427 72.1841 217.046 74.8313 211.693 77.8737C206.745 80.684 201.59 83.8904 197.719 89.4525C191.926 97.78 187.278 104.783 183.09 111.5C179.612 117.076 176.527 123.024 173.967 128.112C172.484 131.07 172.42 134.562 172.516 136.378C172.712 140.234 174.516 145.249 181.983 147.245C182.468 147.372 182.949 147.507 183.434 147.647C181.606 151.128 182.425 154.42 183.868 156.18C183.877 156.374 183.777 156.958 183.708 157.348C183.528 158.411 183.28 159.456 183.038 160.507L182.679 162.073C181.424 167.739 178.693 172.696 175.521 178.126C173.704 181.238 171.569 187.302 177.691 192.997C178 193.282 178.277 193.752 178.327 193.92C178.555 195.065 178.801 196.21 179.048 197.356C179.736 200.557 180.378 203.616 180.689 206.594L190.931 226.503C191.544 226.916 192.157 227.328 192.803 227.695Z" fill="#EC021B"/>
<path d="M358.957 273.735C356.731 270.001 353.437 268.005 349.653 268.005C348.684 268.005 347.684 268.137 346.661 268.4C341.452 269.762 336.609 268.052 331.374 263.085C329.619 261.415 328.53 259.364 328.134 256.987C327.735 254.59 326.809 252.818 325.376 251.729C323.241 250.108 320.93 250.698 320.164 250.9C316.962 251.733 313.769 252.584 310.572 253.436L303.17 255.401C302.874 255.477 302.579 255.573 302.284 255.655L305.97 264.168L312.354 262.474C315.067 261.75 317.776 261.026 320.619 260.289C321.551 264.153 323.505 267.575 326.328 270.259C333.514 277.085 340.733 279.434 348.397 277.446C350.737 276.836 351.701 277.838 352.398 279.008C355.395 284.048 358.053 288.609 360.211 293.361C360.632 294.282 360.85 294.85 360.963 295.19C360.496 295.747 359.62 296.585 359.287 296.901C354.319 301.649 352.266 308.116 353.353 315.604C353.459 316.333 353.618 317.018 353.776 317.7L367.836 290.461C367.65 289.988 367.496 289.538 367.261 289.025C364.895 283.825 362.101 279.028 358.957 273.735Z" fill="#EC021B"/>
<path d="M572.659 401.236C572.365 402.027 572.101 402.837 571.84 403.648L571.392 404.997C569.937 409.297 570.766 413.375 573.733 416.475C575.107 417.915 575.415 418.399 574.145 420.942C572.195 424.844 568.938 427.294 564.89 430.094C561.657 432.327 558.391 434.484 555.124 436.648C549.513 440.36 543.713 444.198 538.157 448.367C529.82 454.621 529.143 457.274 533.332 467.278L533.677 468.105C534.212 469.384 534.781 470.646 535.343 471.909C537.092 475.81 538.744 479.499 539.327 483.453C539.379 483.795 539.459 484.129 539.502 484.207C539.963 487.177 539.955 488.2 539.955 488.359C539.756 488.611 539.016 489.132 536.642 490.177C534.838 490.97 533.029 491.74 531.21 492.476C524.302 495.284 520.026 500.96 518.511 509.347C516.328 521.404 512.032 531.087 505.386 538.944C500.588 544.62 494.849 549.29 487.832 553.234C478.364 558.548 467.707 562.209 455.25 564.427C447.074 565.885 440.575 570.827 435.132 575.339C434.237 576.077 433.648 577.01 433.177 577.956C431.876 576.485 430.389 574.906 428.747 573.493C424.588 569.927 420.486 565.803 418.646 559.846C417.664 556.673 417.542 553.785 418.272 551.014C419.681 545.674 417.364 542.469 415.864 541.034L413.668 538.92C411.614 536.934 409.561 534.951 407.441 533.068C397.88 524.576 394.531 513.515 396.897 498.248L397.314 495.636C397.695 493.25 398.079 490.866 398.38 488.466C399.677 478.079 395.529 469.71 391.772 463.576C388.44 458.136 385.832 452.274 384.015 446.159C378.841 428.729 383.129 410.475 395.21 398.506C395.673 398.048 396.122 397.57 396.581 397.076L399.728 393.754L395.544 386.488C393.624 383.149 391.725 379.844 389.809 376.548C385.766 369.592 384.393 362.244 385.614 354.089C386.451 348.484 385.292 343.448 382.21 339.045L377.56 348.34C377.867 349.636 377.983 350.987 377.755 352.505C376.188 362.988 378.02 372.824 383.201 381.735C385.109 385.023 387.003 388.313 388.915 391.639L389.26 392.237C375.219 406.735 370.319 428.442 376.477 449.182C378.543 456.14 381.501 462.789 385.276 468.953C389.69 476.159 391.2 481.422 390.486 487.135C390.201 489.412 389.838 491.672 389.474 493.934L389.052 496.6C386.174 515.15 390.733 529.895 402.599 540.437C404.633 542.239 406.598 544.144 408.567 546.045L410.696 548.101C410.683 548.159 410.669 548.224 410.649 548.298C409.412 552.984 409.58 557.927 411.144 562.977C413.71 571.289 419.091 576.723 424.008 580.948C425.64 582.349 427.188 584.088 428.487 585.599C429.821 587.157 431.575 587.999 433.409 587.999C433.751 587.999 434.098 587.971 434.44 587.912C436.652 587.532 438.533 585.98 439.607 583.64L439.841 583.118C439.906 582.966 439.97 582.807 440.039 582.657C445.91 577.814 450.735 574.611 456.46 573.587C469.708 571.229 481.106 567.305 491.3 561.58C499.162 557.166 505.63 551.888 511.073 545.443C518.712 536.408 523.845 524.908 526.316 511.255C527.26 506.051 529.579 502.959 533.839 501.23C535.728 500.465 537.597 499.668 539.466 498.85C547.2 495.439 548.822 492.097 547.348 482.528C547.301 482.224 547.226 481.922 547.191 481.889C546.391 476.5 544.372 471.991 542.416 467.628C541.887 466.442 541.355 465.255 540.852 464.056L540.506 463.224C539.831 461.613 539.138 459.961 538.862 459.04C539.587 458.325 541.167 457.14 542.479 456.152C547.848 452.131 553.553 448.355 559.069 444.706C562.381 442.516 565.693 440.324 568.964 438.062C573.671 434.812 578.132 431.413 581.039 425.6C584.08 419.522 583.417 414.134 579.069 409.587C578.754 409.257 578.669 409.07 578.66 409.07C578.66 409.03 578.669 408.83 578.813 408.409L579.306 406.912C579.525 406.232 579.743 405.549 579.989 404.887C581.129 401.802 581.764 398.699 581.901 395.594H573.788C573.657 397.474 573.354 399.35 572.659 401.236Z" fill="#F2DF67"/>
<path d="M559.426 345.65C558.407 348.944 558.13 352.334 558.538 355.714H566.69C566.187 353.374 566.224 351.074 566.933 348.777C568.214 344.626 569.51 340.609 571.301 337.095C576.639 326.649 583.4 317.01 591.723 307.971H580.428C574.178 315.639 568.859 323.727 564.449 332.361C562.292 336.58 560.785 341.241 559.426 345.65Z" fill="#F2DF67"/>
<path d="M297.66 256.983C293.445 258.241 289.466 259.431 285.475 259.834C281.907 260.196 278.197 259.77 274.271 259.328C272.332 259.105 270.391 258.889 268.461 258.761L266.986 258.653C266.436 258.611 265.866 258.587 265.309 258.549L269.553 268.162C270.867 268.281 272.182 268.399 273.498 268.549C277.612 269.015 281.861 269.501 286.16 269.066C290.812 268.6 295.302 267.255 299.648 265.956C301.409 265.432 303.165 264.903 304.93 264.441L305.97 264.164L302.284 255.655C300.74 256.077 299.199 256.52 297.66 256.983Z" fill="#EC021B"/>
<path d="M572.229 367.905C570.858 365.239 569.49 362.577 568.139 359.909C567.421 358.483 566.986 357.093 566.691 355.713H558.539C558.901 358.706 559.797 361.694 561.264 364.603C562.627 367.295 564.004 369.975 565.38 372.658C567.444 376.674 569.509 380.688 571.511 384.744C573.337 388.43 574.023 392.017 573.783 395.592H581.896C582.122 390.426 580.966 385.249 578.427 380.117C576.398 376.021 574.311 371.961 572.229 367.905Z" fill="#F2DF67"/>
<path d="M570.987 185.398C575.179 190.283 579.647 194.744 583.968 199.063C586.759 201.847 589.014 205.541 591.063 210.687C591.912 212.832 592.862 214.933 593.819 217.028C595.524 220.75 598.555 222.726 601.906 222.237L603.717 221.993C607.997 221.423 612.42 220.83 616.777 219.738C624.786 217.739 632.033 213.62 638.776 209.568C641.353 208.019 644.454 207.136 647.946 206.227C647.97 206.212 648.594 206.116 649.99 206.617V197.126C648.617 196.885 647.342 196.88 646.197 197.183C642.155 198.239 638.533 199.275 635.111 201.335C628.85 205.096 622.149 208.916 615.102 210.676C611.122 211.672 607.084 212.21 602.805 212.785L601.115 213.085C601.082 213.057 600.973 212.934 600.854 212.669C599.971 210.74 599.089 208.802 598.299 206.803C595.752 200.401 592.848 195.703 589.161 192.029C586.929 189.8 584.665 187.519 582.429 185.186H570.814C570.878 185.258 570.924 185.327 570.987 185.398Z" fill="#EC021B"/>
<path d="M266.984 258.65L268.46 258.758C270.389 258.886 272.33 259.103 274.269 259.325C278.195 259.769 281.906 260.194 285.473 259.832C289.464 259.429 293.443 258.238 297.658 256.981C299.197 256.517 300.739 256.073 302.281 255.651L272.227 186.238H233.409L265.308 258.547C265.865 258.584 266.434 258.608 266.984 258.65Z" fill="white"/>
<path d="M421.627 186.239L367.834 290.46L353.776 317.698L340.383 343.645L305.97 264.165L304.93 264.441C303.165 264.903 301.407 265.434 299.648 265.959C295.302 267.258 290.81 268.602 286.16 269.068C281.858 269.503 277.611 269.019 273.498 268.552C272.182 268.403 270.865 268.283 269.552 268.166L278.545 288.552L251.558 343.978L248.146 337.727L190.929 226.498L180.687 206.591L170.217 186.239H165.513H127.339H120.83L7.99146 395.591H54.0301L78.8557 349.94H208.847L235.026 395.591H235.216H238.993H264.554L296.149 328.957V328.431L325.94 395.591H353.923L377.559 348.336L382.209 339.041L458.641 186.238L421.627 186.239ZM98.713 311.642L143.399 226.639L188.085 311.642H98.713Z" fill="white"/>
<path d="M565.381 372.659C564.008 369.975 562.627 367.295 561.265 364.603C559.798 361.694 558.902 358.706 558.541 355.713H486.594V335.776H443.715C443.715 360.617 446.797 376.796 452.968 384.309C459.138 391.835 471.997 395.593 491.568 395.593H573.786C574.026 392.017 573.341 388.43 571.514 384.744C569.507 380.688 567.445 376.674 565.381 372.659Z" fill="white"/>
<path d="M644.121 277.277C640.808 274.014 636.188 271.555 630.33 269.851C627.628 269.067 624.627 268.462 621.384 268.008C616.958 267.39 612.09 267.043 606.658 267.043H486.592V222.442H642.262H649.99V208.587V206.619C648.593 206.119 647.97 206.215 647.945 206.23C644.453 207.141 641.354 208.023 638.776 209.57C632.032 213.622 624.786 217.741 616.776 219.741C612.418 220.832 607.996 221.427 603.717 221.996L601.906 222.24C598.553 222.729 595.523 220.751 593.818 217.031C592.861 214.935 591.911 212.835 591.062 210.689C589.015 205.543 586.761 201.85 583.968 199.066C579.644 194.747 575.181 190.285 570.987 185.4C570.924 185.329 570.878 185.26 570.816 185.19H495.169C477.117 185.19 464.703 188.519 457.938 195.161C451.164 201.809 447.78 215.097 447.78 235.034V258.126C447.78 277.717 451.164 290.918 457.938 297.736C464.703 304.558 477.117 307.972 495.169 307.972H580.431H591.722H615.236V355.715H566.693C566.988 357.094 567.422 358.484 568.141 359.911C569.49 362.58 570.858 365.242 572.229 367.907C574.31 371.964 576.4 376.023 578.428 380.12C580.967 385.251 582.123 390.426 581.897 395.595H606.659C612.221 395.595 617.189 395.241 621.693 394.612C629.26 393.551 635.34 391.605 639.928 388.763C641.474 387.806 642.913 386.784 644.122 385.623C651.038 378.986 654.499 365.687 654.499 345.75V316.89C654.499 297.302 651.038 284.095 644.121 277.277Z" fill="white"/>
<path d="M598.302 206.799C599.093 208.8 599.972 210.736 600.857 212.664C600.977 212.93 601.086 213.053 601.118 213.081L602.807 212.781C607.088 212.207 611.125 211.667 615.104 210.672C622.152 208.912 628.852 205.094 635.115 201.333C638.535 199.275 642.158 198.24 646.2 197.184C647.345 196.88 648.619 196.885 649.993 197.127V185.19H582.433C584.669 187.52 586.932 189.801 589.166 192.029C592.851 195.705 595.756 200.402 598.302 206.799Z" fill="white"/>
<path d="M815.257 184.143H662.697V395.594H704.221V314.266H815.258C842.34 314.266 855.877 301.673 855.877 276.488V220.874C855.876 196.388 842.339 184.143 815.257 184.143ZM816.611 260.22C816.611 271.419 812.548 277.013 804.424 277.013H704.22V220.346H804.424C812.548 220.346 816.611 226.114 816.611 237.661V260.22Z" fill="white"/>
<path d="M624.986 421.14V421.135C624.561 420.35 624.061 419.674 623.532 419.046L623.552 419.041C623.538 419.03 623.523 419.023 623.508 419.014C622.852 418.244 622.143 417.566 621.37 417.043C621.132 417.19 620.846 417.307 620.599 417.451C614.735 415.416 608.623 419.649 605.719 422.13C605.555 422.155 605.414 422.19 605.251 422.213C604.877 422.627 604.546 423.094 604.193 423.532C604.069 423.659 603.985 423.745 603.985 423.745L604.033 423.733C601.634 426.781 599.71 430.402 598.392 434.688C597.033 439.113 594.972 441.63 591.499 443.102C582.777 446.796 579.313 453.086 579.915 464.143C580.111 467.715 580.529 471.549 581.159 475.537C581.309 476.511 581.124 476.71 580.81 477.046C575.513 482.729 573.21 490.351 573.975 499.701C574.852 510.43 578.528 517.756 585.22 522.095C588.018 523.902 591.049 524.827 594.021 524.827C595.983 524.827 597.918 524.422 599.741 523.609C604.23 521.61 607.606 517.429 609.252 511.841C610.764 506.7 611.067 501.85 610.153 497.42C609.582 494.664 609.867 491.972 611.045 488.95C615.117 478.526 619.252 468.32 623.338 458.608C625.971 452.351 628.693 445.884 628.036 438.262L628.047 437.204C628.053 436.293 628.061 435.487 628.026 434.688C627.822 430.206 627.316 425.46 624.986 421.14ZM617.004 455.01C612.886 464.789 608.725 475.07 604.629 485.564C602.791 490.269 602.357 494.775 603.296 499.332C603.895 502.227 603.655 505.542 602.582 509.189C601.625 512.437 599.721 514.843 597.215 515.959C594.546 517.148 591.508 516.784 588.652 514.936C584.015 511.926 581.649 506.989 580.989 498.931C580.432 492.072 581.895 487.035 585.584 483.078C587.783 480.728 588.652 477.607 588.091 474.058C587.512 470.391 587.129 466.876 586.951 463.623C586.541 456.137 588.104 453.264 593.91 450.802C599.338 448.505 602.973 444.132 605.028 437.447C606.673 432.101 609.275 428.187 612.986 425.482C614.051 424.702 615.162 424.131 616.195 423.823C616.381 423.769 616.558 423.746 616.728 423.746C617.963 423.746 618.773 425.046 619.01 425.491C620.405 428.079 620.806 431.213 620.981 435.114C621.013 435.747 621.002 436.383 620.996 437.102L620.985 438.463L621.007 438.915C621.521 444.28 619.326 449.489 617.004 455.01Z" fill="#EC021B"/>
<g opacity="0.3">
<path d="M239.768 190.752L267.749 254.18L268.69 254.254C270.672 254.386 272.663 254.608 274.651 254.834C277.409 255.144 280.051 255.451 282.608 255.451C283.462 255.451 284.306 255.415 285.137 255.335C288.766 254.966 292.546 253.841 296.626 252.631L269.837 190.752H239.768Z" fill="#BFBFBF"/>
<mask id="mask0_21_14" style="mask-type:luminance" maskUnits="userSpaceOnUse" x="239" y="190" width="58" height="66">
<g opacity="0.3">
<mask id="mask1_21_14" style="mask-type:luminance" maskUnits="userSpaceOnUse" x="239" y="190" width="58" height="66">
<path d="M239.768 190.752L267.749 254.18L268.69 254.254C270.672 254.386 272.663 254.608 274.651 254.834C277.409 255.144 280.051 255.451 282.608 255.451C283.462 255.451 284.306 255.415 285.137 255.335C288.766 254.966 292.546 253.841 296.626 252.631L269.837 190.752H239.768Z" fill="white"/>
</mask>
<g mask="url(#mask1_21_14)">
<path d="M238.924 255.44L239.78 189.755L297.468 190.771L296.612 256.456L238.924 255.44Z" fill="url(#paint0_linear_21_14)"/>
</g>
</g>
</mask>
<g mask="url(#mask0_21_14)">
<mask id="mask2_21_14" style="mask-type:luminance" maskUnits="userSpaceOnUse" x="240" y="190" width="57" height="66">
<path d="M296.479 190.903L241.386 222.001L241.312 223.088C241.176 225.378 240.963 227.676 240.745 229.972C240.447 233.156 240.153 236.206 240.125 239.164C240.115 240.152 240.137 241.129 240.197 242.092C240.476 246.298 241.405 250.692 242.406 255.436L296.147 225.686L296.479 190.903Z" fill="white"/>
</mask>
<g mask="url(#mask2_21_14)">
<path d="M296.762 256.49L297.494 190.959L239.684 189.79L238.952 255.321L296.762 256.49Z" fill="#BFBFBF"/>
</g>
</g>
<path d="M122.981 190.752L59.1084 309.255H95.4139L143.399 217.981L191.387 309.255H228.976L168.015 190.752H122.981Z" fill="#BFBFBF"/>
<mask id="mask3_21_14" style="mask-type:luminance" maskUnits="userSpaceOnUse" x="59" y="190" width="170" height="120">
<g opacity="0.3">
<mask id="mask4_21_14" style="mask-type:luminance" maskUnits="userSpaceOnUse" x="59" y="190" width="170" height="120">
<path d="M122.981 190.752L59.1084 309.255H95.4139L143.399 217.981L191.387 309.255H228.976L168.015 190.752H122.981Z" fill="white"/>
</mask>
<g mask="url(#mask4_21_14)">
<path d="M57.5645 309.227L59.1486 187.76L230.521 190.779L228.938 312.247L57.5645 309.227Z" fill="url(#paint1_linear_21_14)"/>
</g>
</g>
</mask>
<g mask="url(#mask3_21_14)">
<mask id="mask5_21_14" style="mask-type:luminance" maskUnits="userSpaceOnUse" x="91" y="150" width="105" height="198">
<path d="M195.548 226.769L93.649 150.362L93.243 192.437L171.741 249.884L92.1699 303.661L91.7496 347.224L195.044 278.96L195.548 226.769Z" fill="white"/>
</mask>
<g mask="url(#mask5_21_14)">
<path d="M229.129 312.233L230.49 191.226L58.8868 187.735L57.5259 308.743L229.129 312.233Z" fill="#BFBFBF"/>
</g>
</g>
<path d="M423.829 190.752L362.664 309.255H392.614L451.888 190.752H423.829Z" fill="#BFBFBF"/>
<mask id="mask6_21_14" style="mask-type:luminance" maskUnits="userSpaceOnUse" x="362" y="190" width="90" height="120">
<g opacity="0.3">
<mask id="mask7_21_14" style="mask-type:luminance" maskUnits="userSpaceOnUse" x="362" y="190" width="90" height="120">
<path d="M423.829 190.752L362.664 309.255H392.614L451.888 190.752H423.829Z" fill="white"/>
</mask>
<g mask="url(#mask7_21_14)">
<path d="M361.121 309.227L362.685 189.181L453.433 190.779L451.869 310.825L361.121 309.227Z" fill="url(#paint2_linear_21_14)"/>
</g>
</g>
</mask>
<g mask="url(#mask6_21_14)">
<mask id="mask8_21_14" style="mask-type:luminance" maskUnits="userSpaceOnUse" x="356" y="197" width="103" height="106">
<path d="M458.189 270.317L356.58 197.24L356.246 231.859L457.876 302.751L458.189 270.317Z" fill="white"/>
</mask>
<g mask="url(#mask8_21_14)">
<path d="M452.042 310.819L453.388 191.019L362.415 189.167L361.069 308.967L452.042 310.819Z" fill="#BFBFBF"/>
</g>
</g>
<path d="M300.609 270.333C296.113 271.677 291.461 273.074 286.5 273.567C285.197 273.698 283.893 273.758 282.6 273.758C280.419 273.758 278.293 273.596 276.222 273.391L282.961 288.657L272.93 309.26H321.143L303.874 269.377C302.896 269.656 301.847 269.964 300.609 270.333Z" fill="#BFBFBF"/>
<mask id="mask9_21_14" style="mask-type:luminance" maskUnits="userSpaceOnUse" x="272" y="269" width="50" height="41">
<g opacity="0.3">
<mask id="mask10_21_14" style="mask-type:luminance" maskUnits="userSpaceOnUse" x="272" y="269" width="50" height="41">
<path d="M300.609 270.333C296.113 271.677 291.461 273.074 286.5 273.567C285.197 273.698 283.893 273.758 282.6 273.758C280.419 273.758 278.293 273.596 276.222 273.391L282.961 288.657L272.93 309.26H321.143L303.874 269.377C302.896 269.656 301.847 269.964 300.609 270.333Z" fill="white"/>
</mask>
<g mask="url(#mask10_21_14)">
<path d="M272.411 309.254L272.942 268.53L321.663 269.389L321.132 310.111L272.411 309.254Z" fill="url(#paint3_linear_21_14)"/>
</g>
</g>
</mask>
<g mask="url(#mask9_21_14)">
<mask id="mask11_21_14" style="mask-type:luminance" maskUnits="userSpaceOnUse" x="279" y="260" width="36" height="57">
<path d="M313.384 293.831C312.271 288.596 311.115 283.18 310.744 277.424C310.644 275.912 310.607 274.4 310.622 272.903C310.646 270.377 310.81 267.917 311.01 265.522L297.729 273.02L280.018 260.986L279.482 316.828L314.175 297.631C313.944 296.493 313.689 295.272 313.384 293.831Z" fill="white"/>
</mask>
<g mask="url(#mask11_21_14)">
<path d="M321.173 310.106L321.629 269.514L272.832 268.521L272.376 309.113L321.173 310.106Z" fill="#BFBFBF"/>
</g>
</g>
<path d="M640.559 213.583C638.113 215.052 635.595 216.529 632.998 217.926H646.112V211.369C643.987 211.988 642.103 212.658 640.559 213.583Z" fill="#BFBFBF"/>
<mask id="mask12_21_14" style="mask-type:luminance" maskUnits="userSpaceOnUse" x="632" y="211" width="15" height="7">
<g opacity="0.3">
<mask id="mask13_21_14" style="mask-type:luminance" maskUnits="userSpaceOnUse" x="632" y="211" width="15" height="7">
<path d="M640.559 213.583C638.113 215.052 635.595 216.529 632.998 217.926H646.112V211.369C643.987 211.988 642.103 212.658 640.559 213.583Z" fill="white"/>
</mask>
<g mask="url(#mask13_21_14)">
<path d="M632.913 217.925L633.001 211.143L646.198 211.373L646.109 218.157L632.913 217.925Z" fill="url(#paint4_linear_21_14)"/>
</g>
</g>
</mask>
<g mask="url(#mask12_21_14)">
<mask id="mask14_21_14" style="mask-type:luminance" maskUnits="userSpaceOnUse" x="636" y="206" width="7" height="17">
<path d="M640.451 215.845C639.203 212.979 637.95 210.03 636.766 206.99L636.619 222.195L642.311 222.327C641.797 219.852 641.237 217.653 640.451 215.845Z" fill="white"/>
</mask>
<g mask="url(#mask14_21_14)">
<path d="M646.104 218.174L646.18 211.424L632.971 211.155L632.895 217.906L646.104 218.174Z" fill="#BFBFBF"/>
</g>
</g>
<path d="M495.172 189.699C478.146 189.699 466.461 192.697 460.443 198.613C454.619 204.325 451.661 216.584 451.661 235.032V258.118C451.661 276.242 454.632 288.428 460.488 294.322C466.493 300.379 478.165 303.45 495.171 303.45H619.122V309.252H650.397C649.632 295.347 646.698 285.737 641.61 280.719C638.803 277.954 634.692 275.772 629.389 274.229C626.953 273.523 624.107 272.934 620.922 272.487C616.434 271.862 611.767 271.553 606.659 271.553H482.71V217.923H589.828C589.032 216.157 588.254 214.381 587.533 212.571C585.738 208.05 583.803 204.847 581.21 202.268C577.284 198.335 573.232 194.277 569.215 189.701H495.172V189.699Z" fill="#BFBFBF"/>
<mask id="mask15_21_14" style="mask-type:luminance" maskUnits="userSpaceOnUse" x="451" y="189" width="200" height="121">
<g opacity="0.3">
<mask id="mask16_21_14" style="mask-type:luminance" maskUnits="userSpaceOnUse" x="451" y="189" width="200" height="121">
<path d="M495.172 189.699C478.146 189.699 466.461 192.697 460.443 198.613C454.619 204.325 451.661 216.584 451.661 235.032V258.118C451.661 276.242 454.632 288.428 460.488 294.322C466.493 300.379 478.165 303.45 495.171 303.45H619.122V309.252H650.397C649.632 295.347 646.698 285.737 641.61 280.719C638.803 277.954 634.692 275.772 629.389 274.229C626.953 273.523 624.107 272.934 620.922 272.487C616.434 271.862 611.767 271.553 606.659 271.553H482.71V217.923H589.828C589.032 216.157 588.254 214.381 587.533 212.571C585.738 208.05 583.803 204.847 581.21 202.268C577.284 198.335 573.232 194.277 569.215 189.701H495.172V189.699Z" fill="white"/>
</mask>
<g mask="url(#mask16_21_14)">
<path d="M450.102 309.228L451.705 186.203L651.953 189.73L650.351 312.754L450.102 309.228Z" fill="url(#paint5_linear_21_14)"/>
</g>
</g>
</mask>
<g mask="url(#mask15_21_14)">
<mask id="mask17_21_14" style="mask-type:luminance" maskUnits="userSpaceOnUse" x="498" y="134" width="106" height="230">
<path d="M603.418 185.911C603.609 166.171 601.141 152.563 596.081 145.466C591.195 138.599 580.602 134.923 564.612 134.553L544.602 134.088C528.892 133.724 518.296 136.924 513.122 143.595C507.804 150.436 505.012 163.906 504.821 183.623L503.431 327.331L498.401 327.215L498.051 363.475C510.112 362.868 518.475 359.66 522.881 353.861C525.309 350.662 527.247 345.941 528.643 339.823C529.283 337.013 529.825 333.725 530.249 330.041C530.841 324.851 531.161 319.446 531.218 313.523L532.608 169.817L579.094 170.895L577.893 295.088C579.432 294.201 580.98 293.334 582.557 292.534C586.496 290.544 589.294 288.366 591.559 285.411C595.011 280.938 598.574 276.322 602.586 271.757L603.416 185.911L603.418 185.911Z" fill="white"/>
</mask>
<g mask="url(#mask17_21_14)">
<path d="M650.529 312.757L651.907 190.269L451.426 186.192L450.047 308.681L650.529 312.757Z" fill="#BFBFBF"/>
</g>
</g>
<path d="M592.749 189.699C596.383 193.635 599.286 198.507 601.83 204.907C602.264 206.016 602.733 207.104 603.213 208.176C607.083 207.654 610.75 207.141 614.29 206.253C620.86 204.613 627.296 200.94 633.334 197.317C637.14 195.024 641.029 193.908 645.34 192.778C645.594 192.712 645.846 192.652 646.112 192.608V189.699H592.749Z" fill="#BFBFBF"/>
<mask id="mask18_21_14" style="mask-type:luminance" maskUnits="userSpaceOnUse" x="592" y="189" width="55" height="20">
<g opacity="0.3">
<mask id="mask19_21_14" style="mask-type:luminance" maskUnits="userSpaceOnUse" x="592" y="189" width="55" height="20">
<path d="M592.749 189.699C596.383 193.635 599.286 198.507 601.83 204.907C602.264 206.016 602.733 207.104 603.213 208.176C607.083 207.654 610.75 207.141 614.29 206.253C620.86 204.613 627.296 200.94 633.334 197.317C637.14 195.024 641.029 193.908 645.34 192.778C645.594 192.712 645.846 192.652 646.112 192.608V189.699H592.749Z" fill="white"/>
</mask>
<g mask="url(#mask19_21_14)">
<path d="M592.509 208.176L592.761 188.763L646.354 189.707L646.102 209.119L592.509 208.176Z" fill="url(#paint6_linear_21_14)"/>
</g>
</g>
</mask>
<g mask="url(#mask18_21_14)">
<mask id="mask20_21_14" style="mask-type:luminance" maskUnits="userSpaceOnUse" x="611" y="168" width="17" height="63">
<path d="M627.764 168.171C624.293 172.311 620.013 175.582 614.405 178.405C613.433 178.887 612.48 179.41 611.54 179.944C611.951 184.447 612.357 188.714 613.091 192.84C614.446 200.499 617.576 208.043 620.666 215.123C622.621 219.587 623.551 224.123 624.487 229.15C624.541 229.445 624.591 229.739 624.627 230.048L627.162 230.107L627.764 168.171Z" fill="white"/>
</mask>
<g mask="url(#mask20_21_14)">
<path d="M646.116 209.133L646.334 189.86L592.704 188.773L592.487 208.045L646.116 209.133Z" fill="#BFBFBF"/>
</g>
</g>
<path d="M700.341 215.832H804.424C810.431 215.832 820.494 218.668 820.494 237.66V260.216C820.494 278.76 810.431 281.524 804.424 281.524H700.341V215.832ZM666.578 188.651V309.256H823.415C848.762 306.312 851.995 289.478 851.995 276.489V220.872C851.995 207.039 848.182 188.651 815.26 188.651H666.578Z" fill="#BFBFBF"/>
<mask id="mask21_21_14" style="mask-type:luminance" maskUnits="userSpaceOnUse" x="666" y="188" width="186" height="122">
<g opacity="0.3">
<mask id="mask22_21_14" style="mask-type:luminance" maskUnits="userSpaceOnUse" x="666" y="188" width="186" height="122">
<path d="M700.341 215.832H804.424C810.431 215.832 820.494 218.668 820.494 237.66V260.216C820.494 278.76 810.431 281.524 804.424 281.524H700.341V215.832ZM666.578 188.651V309.256H823.415C848.762 306.312 851.995 289.478 851.995 276.489V220.872C851.995 207.039 848.182 188.651 815.26 188.651H666.578Z" fill="white"/>
</mask>
<g mask="url(#mask22_21_14)">
<path d="M665.006 309.23L666.62 185.387L853.565 188.68L851.952 312.522L665.006 309.23Z" fill="url(#paint7_linear_21_14)"/>
</g>
</g>
</mask>
<g mask="url(#mask21_21_14)">
<mask id="mask23_21_14" style="mask-type:luminance" maskUnits="userSpaceOnUse" x="706" y="140" width="107" height="218">
<path d="M788.684 181.331L787.528 301.983C787.461 308.945 784.892 320.554 768.44 320.174L748.901 319.723C732.837 319.353 730.555 307.632 730.622 300.67L731.778 180.018L788.684 181.331ZM812.605 142.737L708.13 140.327L706.387 322.129C708.656 351.569 723.203 355.654 734.454 355.913L782.633 357.025C794.616 357.301 810.587 353.249 810.953 315.086L812.605 142.737Z" fill="white"/>
</mask>
<g mask="url(#mask23_21_14)">
<path d="M852.234 312.555L853.612 189.21L666.434 185.428L665.055 308.773L852.234 312.555Z" fill="#BFBFBF"/>
</g>
</g>
</g>
<path d="M18.2067 435.325L15.978 429.544H3.88032L1.67944 435.325H0L9.08943 411.776H10.7958L19.8835 435.325H18.2067ZM15.372 427.861L9.92823 413.526L4.48719 427.861H15.372Z" fill="white"/>
<path d="M28.3904 422.982H40.0556V424.694H28.3904V435.362H26.8279V411.776H40.4629V413.599H28.3904V422.982Z" fill="white"/>
<path d="M64.7414 435.325H62.6862L55.6808 426.413H50.1561V435.325H48.5908V411.776H57.5058C61.9058 411.776 64.1355 415.443 64.1633 419.11C64.1912 422.945 62.0227 426.311 57.593 426.311L64.7414 435.325ZM50.1561 424.694H57.3305C60.8629 424.694 62.4272 422.371 62.456 419.079C62.4848 416.317 60.8629 413.46 57.5058 413.46H50.1561V424.694Z" fill="white"/>
<path d="M73.565 411.776H72.0312V435.328H73.565V411.776Z" fill="white"/>
<path d="M99.3961 432.064C97.3697 434.416 94.6797 435.599 92.014 435.599C85.1866 435.599 81.6237 430.045 81.5949 423.689C81.5383 417.4 85.0688 411.515 92.014 411.515C94.6797 411.515 97.3697 412.691 99.3961 415.042L98.3281 416.122C96.5902 414.1 94.303 413.124 92.0149 413.124C86.1135 413.124 83.072 417.973 83.0999 423.624C83.161 429.141 86.1702 433.917 92.0149 433.917C94.3039 433.917 96.619 432.904 98.3568 430.92L99.3961 432.064Z" fill="white"/>
<path d="M122.925 435.325L120.696 429.544H108.598L106.398 435.325H104.72L113.807 411.776H115.514L124.603 435.325H122.925ZM120.089 427.861L114.645 413.526L109.204 427.861H120.089Z" fill="white"/>
<path d="M156.654 411.776H157.523L163.719 433.305L170 411.776H171.679L164.528 435.392H162.85L159.637 424.364L157.09 415.039L154.542 424.29L151.301 435.392H149.622L142.529 411.776H144.178L150.431 433.305L156.654 411.776Z" fill="white"/>
<path d="M180.602 422.643H192.468V424.29H180.602V433.577H193.394V435.324H179.068V411.776H193.048V413.497H180.602V422.643Z" fill="white"/>
<path d="M203.056 411.776V433.613H214.461V435.325H201.493V411.776H203.056Z" fill="white"/>
<path d="M223.624 411.776V433.613H235.03V435.325H222.062V411.776H223.624Z" fill="white"/>
<path d="M243.333 411.776L256.965 431.255V411.776H258.501V435.325H257.89L244.23 415.885V435.325H242.665V411.776H243.333Z" fill="white"/>
<path d="M269.205 422.643H281.072V424.29H269.205V433.577H282V435.324H267.671V411.776H281.652V413.497H269.205V422.643Z" fill="white"/>
<path d="M303.85 416.316C302.373 413.561 299.998 413.157 297.713 413.119C295.339 413.119 291.578 414.134 291.578 417.902C291.578 420.893 294.357 421.597 297.77 422.34C301.678 423.216 305.73 424.022 305.73 429.1C305.701 434.413 301.1 435.691 297.713 435.691C294.559 435.691 290.967 434.179 289.407 430.577L290.794 429.776C292.04 432.633 295.223 434.045 297.713 434.045C300.202 434.045 304.169 433.237 304.169 429.062C304.198 425.536 300.84 424.757 297.512 424.022C293.806 423.178 290.013 422.303 290.013 417.968C289.927 412.986 294.386 411.444 297.713 411.444C300.605 411.444 303.125 411.98 305.124 415.441L303.85 416.316Z" fill="white"/>
<path d="M326.825 416.316C325.348 413.561 322.975 413.157 320.688 413.119C318.315 413.119 314.553 414.134 314.553 417.902C314.553 420.893 317.332 421.597 320.745 422.34C324.653 423.216 328.707 424.022 328.707 429.1C328.678 434.413 324.076 435.691 320.688 435.691C317.534 435.691 313.943 434.179 312.381 430.577L313.768 429.776C315.014 432.633 318.197 434.045 320.687 434.045C323.176 434.045 327.144 433.237 327.144 429.062C327.172 425.536 323.814 424.757 320.485 424.022C316.78 423.178 312.986 422.303 312.986 417.968C312.901 412.986 317.359 411.444 320.687 411.444C323.579 411.444 326.099 411.98 328.097 415.441L326.825 416.316Z" fill="white"/>
<path d="M362.322 417.464C362.322 413.76 359.835 413.121 357.144 413.121C353.266 413.121 351.413 415.208 351.441 417.867C351.469 421.467 354.772 422.577 357.201 422.577H365.797V424.025H363.945V429.169C363.945 431.697 364.437 433.943 366.464 433.914V435.328C364.814 435.598 363.511 434.319 363.078 432.336C361.602 435.128 359.285 435.627 357.114 435.627C352.194 435.627 349.618 433.107 349.618 429.067C349.618 426.142 351.673 424.091 353.7 423.321C351.588 422.578 349.966 420.528 349.966 417.905C349.966 414.269 352.543 411.646 357.175 411.646C360.415 411.646 363.687 412.623 363.687 417.465L362.322 417.464ZM362.67 424.025H357.113C353.121 424.025 351.094 426.647 351.094 429.066C351.094 432.092 353.003 434.047 357.085 434.047C359.403 434.047 362.67 433.107 362.67 429.169V424.025Z" fill="white"/>
<path d="M400.51 416.316C399.033 413.561 396.659 413.157 394.373 413.119C391.999 413.119 388.237 414.134 388.237 417.902C388.237 420.893 391.016 421.597 394.43 422.34C398.338 423.216 402.39 424.022 402.39 429.1C402.361 434.413 397.76 435.691 394.373 435.691C391.218 435.691 387.628 434.179 386.067 430.577L387.454 429.776C388.699 432.633 391.883 434.045 394.373 434.045C396.861 434.045 400.829 433.237 400.829 429.062C400.858 425.536 397.5 424.757 394.172 424.022C390.466 423.178 386.673 422.303 386.673 417.968C386.587 412.986 391.046 411.444 394.373 411.444C397.265 411.444 399.785 411.98 401.783 415.441L400.51 416.316Z" fill="white"/>
<path d="M416.108 413.428H408.787V411.812H424.994V413.428H417.673V435.324H416.108V413.428Z" fill="white"/>
<path d="M448.781 435.325H446.727L439.721 426.413H434.192V435.325H432.628V411.776H441.543C445.944 411.776 448.176 415.443 448.2 419.11C448.231 422.945 446.056 426.311 441.631 426.311L448.781 435.325ZM434.191 424.694H441.371C444.899 424.694 446.461 422.371 446.492 419.079C446.524 416.317 444.899 413.46 441.541 413.46H434.191L434.191 424.694Z" fill="white"/>
<path d="M457.578 422.643H469.445V424.29H457.578V433.577H470.369V435.324H456.043V411.776H470.021V413.497H457.578V422.643Z" fill="white"/>
<path d="M479.77 411.776L493.401 431.255V411.776H494.937V435.325H494.331L480.668 415.885V435.325H479.105V411.776H479.77Z" fill="white"/>
<path d="M520.062 416.117C518.292 414.095 515.831 413.089 513.544 413.089C507.613 413.089 504.572 418.136 504.604 423.581C504.604 429.135 507.644 433.911 513.544 433.911C515.718 433.911 517.976 433.038 519.713 431.186V424.596H512.653V423.008H521.187V431.825C519.074 434.28 516.559 435.622 513.543 435.622C506.658 435.622 503.098 430.039 503.098 423.618C503.066 416.248 507.378 411.444 513.543 411.444C516.211 411.444 518.898 412.62 520.953 414.97L520.062 416.117Z" fill="white"/>
<path d="M534.618 413.428H527.296V411.812H543.508V413.428H536.18V435.324H534.618V413.428Z" fill="white"/>
<path d="M565.611 435.325V424.628H552.702V435.325H551.139V411.776H552.702V422.982H565.611V411.776H567.174V435.325H565.611Z" fill="white"/>
<path d="M590.453 427.185V435.325H588.893V411.776H597.775C606.577 411.776 606.577 427.185 597.775 427.185H590.453ZM590.453 413.46V425.539H597.775C604.523 425.539 604.523 413.46 597.775 413.46H590.453Z" fill="white"/>
<path d="M614.016 422.643H625.883V424.29H614.016V433.577H626.807V435.324H612.479V411.776H626.459V413.497H614.016V422.643Z" fill="white"/>
<path d="M651.088 435.325H649.032L642.027 426.413H636.5V435.325H634.94V411.776H643.855C648.256 411.776 650.481 415.443 650.512 419.11C650.536 422.945 648.369 426.311 643.937 426.311L651.088 435.325ZM636.5 424.694H643.676C647.212 424.694 648.773 422.371 648.798 419.079C648.829 416.317 647.211 413.46 643.854 413.46H636.5L636.5 424.694Z" fill="white"/>
<path d="M659.907 422.982H671.572V424.694H659.907V435.362H658.345V411.776H671.978V413.599H659.907V422.982Z" fill="white"/>
<path d="M700.258 423.586C700.226 429.778 696.843 435.729 690.04 435.729C683.237 435.729 679.823 429.742 679.823 423.518C679.823 417.192 683.205 411.409 690.04 411.409C696.868 411.41 700.282 417.23 700.258 423.586ZM681.352 423.555C681.383 428.866 684.279 434.047 690.039 434.047C695.824 434.047 698.751 428.866 698.751 423.555C698.751 418.102 695.856 413.091 690.039 413.091C684.222 413.091 681.327 418 681.352 423.555Z" fill="white"/>
<path d="M724.795 435.325H722.739L715.735 426.413H710.209V435.325H708.648V411.776H717.562C721.964 411.776 724.188 415.443 724.22 419.11C724.245 422.945 722.077 426.311 717.645 426.311L724.795 435.325ZM710.209 424.694H717.384C720.92 424.694 722.481 422.371 722.505 419.079C722.537 416.317 720.919 413.46 717.561 413.46H710.208V424.694H710.209Z" fill="white"/>
<path d="M749.744 414.4L741.987 428.192H741.468L733.654 414.4V435.325H732.091V411.776H733.945L741.702 425.502L749.372 411.776H751.28V435.325H749.744V414.4Z" fill="white"/>
<path d="M776.52 435.325L774.288 429.544H762.193L759.993 435.325H758.312L767.403 411.776H769.11L778.202 435.325H776.52ZM773.68 427.861L768.244 413.526L762.8 427.861H773.68Z" fill="white"/>
<path d="M786.156 411.776L799.788 431.255V411.776H801.324V435.325H800.716L787.053 415.885V435.325H785.492V411.776H786.156Z" fill="white"/>
<path d="M827.228 432.064C825.205 434.416 822.511 435.599 819.85 435.599C813.014 435.599 809.455 430.045 809.43 423.689C809.367 417.4 812.9 411.515 819.85 411.515C822.511 411.515 825.205 412.691 827.228 415.042L826.16 416.122C824.421 414.1 822.133 413.124 819.85 413.124C813.945 413.124 810.903 417.973 810.933 423.624C810.991 429.141 814 433.917 819.85 433.917C822.132 433.917 824.452 432.904 826.185 430.92L827.228 432.064Z" fill="white"/>
<path d="M837.065 422.643H848.934V424.29H837.065V433.577H849.857V435.324H835.531V411.776H849.508V413.497H837.065V422.643Z" fill="white"/>
<defs>
<linearGradient id="paint0_linear_21_14" x1="267.097" y1="310.086" x2="267.796" y2="270.426" gradientUnits="userSpaceOnUse">
<stop stop-color="#333333"/>
<stop offset="1"/>
</linearGradient>
<linearGradient id="paint1_linear_21_14" x1="143.322" y1="307.906" x2="144.02" y2="268.254" gradientUnits="userSpaceOnUse">
<stop stop-color="#333333"/>
<stop offset="1"/>
</linearGradient>
<linearGradient id="paint2_linear_21_14" x1="406.492" y1="312.531" x2="407.19" y2="272.879" gradientUnits="userSpaceOnUse">
<stop stop-color="#333333"/>
<stop offset="1"/>
</linearGradient>
<linearGradient id="paint3_linear_21_14" x1="296.778" y1="310.635" x2="297.477" y2="270.98" gradientUnits="userSpaceOnUse">
<stop stop-color="#333333"/>
<stop offset="1"/>
</linearGradient>
<linearGradient id="paint4_linear_21_14" x1="638.268" y1="316.615" x2="638.966" y2="276.965" gradientUnits="userSpaceOnUse">
<stop stop-color="#333333"/>
<stop offset="1"/>
</linearGradient>
<linearGradient id="paint5_linear_21_14" x1="550.225" y1="315.078" x2="550.924" y2="275.421" gradientUnits="userSpaceOnUse">
<stop stop-color="#333333"/>
<stop offset="1"/>
</linearGradient>
<linearGradient id="paint6_linear_21_14" x1="617.958" y1="316.356" x2="618.657" y2="276.667" gradientUnits="userSpaceOnUse">
<stop stop-color="#333333"/>
<stop offset="1"/>
</linearGradient>
<linearGradient id="paint7_linear_21_14" x1="758.405" y1="318.748" x2="759.104" y2="279.088" gradientUnits="userSpaceOnUse">
<stop stop-color="#333333"/>
<stop offset="1"/>
</linearGradient>
</defs>
</svg>
